{
    "asset" : {
        "generator" : "Khronos glTF Blender I/O v1.8.19",
        "version" : "2.0"
    },
    "scene" : 0,
    "scenes" : [
        {
            "name" : "Scene",
            "nodes" : [
                0,
                1
            ]
        }
    ],
    "nodes" : [
        {
            "mesh" : 0,
            "name" : "YOU",
            "scale" : [
                0.0009679999784566462,
                0.0009679999784566462,
                0.0009679999784566462
            ],
            "translation" : [
                0.517210066318512,
                0,
                0
            ]
        },
        {
            "mesh" : 1,
            "name" : "ZUO",
            "scale" : [
                0.0009679999784566462,
                0.0009679999784566462,
                0.0009679999784566462
            ],
            "translation" : [
                0.5167348980903625,
                0,
                0
            ]
        }
    ],
    "animations" : [
        {
            "channels" : [
                {
                    "sampler" : 0,
                    "target" : {
                        "node" : 0,
                        "path" : "translation"
                    }
                },
                {
                    "sampler" : 1,
                    "target" : {
                        "node" : 0,
                        "path" : "rotation"
                    }
                },
                {
                    "sampler" : 2,
                    "target" : {
                        "node" : 0,
                        "path" : "scale"
                    }
                }
            ],
            "name" : "YOU|Take 001|BaseLayer",
            "samplers" : [
                {
                    "input" : 21,
                    "interpolation" : "LINEAR",
                    "output" : 22
                },
                {
                    "input" : 23,
                    "interpolation" : "LINEAR",
                    "output" : 24
                },
                {
                    "input" : 23,
                    "interpolation" : "LINEAR",
                    "output" : 25
                }
            ]
        },
        {
            "channels" : [
                {
                    "sampler" : 0,
                    "target" : {
                        "node" : 1,
                        "path" : "translation"
                    }
                },
                {
                    "sampler" : 1,
                    "target" : {
                        "node" : 1,
                        "path" : "rotation"
                    }
                },
                {
                    "sampler" : 2,
                    "target" : {
                        "node" : 1,
                        "path" : "scale"
                    }
                }
            ],
            "name" : "ZUO|Take 001|BaseLayer",
            "samplers" : [
                {
                    "input" : 21,
                    "interpolation" : "LINEAR",
                    "output" : 26
                },
                {
                    "input" : 23,
                    "interpolation" : "LINEAR",
                    "output" : 27
                },
                {
                    "input" : 23,
                    "interpolation" : "LINEAR",
                    "output" : 28
                }
            ]
        }
    ],
    "materials" : [
        {
            "doubleSided" : true,
            "name" : "Material #110",
            "pbrMetallicRoughness" : {
                "baseColorTexture" : {
                    "index" : 0
                },
                "roughnessFactor" : 0.858578622341156
            }
        },
        {
            "doubleSided" : true,
            "name" : "Material #122",
            "pbrMetallicRoughness" : {
                "baseColorTexture" : {
                    "index" : 1
                },
                "roughnessFactor" : 0.858578622341156
            }
        },
        {
            "doubleSided" : true,
            "name" : "Material #134",
            "pbrMetallicRoughness" : {
                "baseColorTexture" : {
                    "index" : 2
                },
                "roughnessFactor" : 0.858578622341156
            }
        },
        {
            "doubleSided" : true,
            "name" : "Material #146",
            "pbrMetallicRoughness" : {
                "baseColorTexture" : {
                    "index" : 3
                },
                "roughnessFactor" : 0.858578622341156
            }
        },
        {
            "doubleSided" : true,
            "name" : "Material #170",
            "pbrMetallicRoughness" : {
                "baseColorTexture" : {
                    "index" : 4
                },
                "roughnessFactor" : 0.858578622341156
            }
        }
    ],
    "meshes" : [
        {
            "name" : "\u7f51\u683c",
            "primitives" : [
                {
                    "attributes" : {
                        "POSITION" : 0,
                        "NORMAL" : 1,
                        "TEXCOORD_0" : 2
                    },
                    "indices" : 3,
                    "material" : 0
                },
                {
                    "attributes" : {
                        "POSITION" : 4,
                        "NORMAL" : 5,
                        "TEXCOORD_0" : 6
                    },
                    "indices" : 7,
                    "material" : 1
                },
                {
                    "attributes" : {
                        "POSITION" : 8,
                        "NORMAL" : 9,
                        "TEXCOORD_0" : 10
                    },
                    "indices" : 11,
                    "material" : 2
                }
            ]
        },
        {
            "name" : "\u7f51\u683c.001",
            "primitives" : [
                {
                    "attributes" : {
                        "POSITION" : 12,
                        "NORMAL" : 13,
                        "TEXCOORD_0" : 14
                    },
                    "indices" : 3,
                    "material" : 3
                },
                {
                    "attributes" : {
                        "POSITION" : 15,
                        "NORMAL" : 16,
                        "TEXCOORD_0" : 17
                    },
                    "indices" : 7,
                    "material" : 1
                },
                {
                    "attributes" : {
                        "POSITION" : 18,
                        "NORMAL" : 19,
                        "TEXCOORD_0" : 20
                    },
                    "indices" : 11,
                    "material" : 4
                }
            ]
        }
    ],
    "textures" : [
        {
            "sampler" : 0,
            "source" : 0
        },
        {
            "sampler" : 0,
            "source" : 1
        },
        {
            "sampler" : 0,
            "source" : 2
        },
        {
            "sampler" : 0,
            "source" : 3
        },
        {
            "sampler" : 0,
            "source" : 2
        }
    ],
    "images" : [
        {
            "bufferView" : 4,
            "mimeType" : "image/jpeg",
            "name" : "DTPBM0002"
        },
        {
            "bufferView" : 9,
            "mimeType" : "image/jpeg",
            "name" : "DTPBM0004"
        },
        {
            "bufferView" : 14,
            "mimeType" : "image/jpeg",
            "name" : "DTPBM0003 "
        },
        {
            "bufferView" : 18,
            "mimeType" : "image/jpeg",
            "name" : "DTPBM0001"
        }
    ],
    "accessors" : [
        {
            "bufferView" : 0,
            "componentType" : 5126,
            "count" : 4,
            "max" : [
                -533.25,
                2200,
                34.47216796875
            ],
            "min" : [
                -1603,
                0,
                34.47216796875
            ],
            "type" : "VEC3"
        },
        {
            "bufferView" : 1,
            "componentType" : 5126,
            "count" : 4,
            "type" : "VEC3"
        },
        {
            "bufferView" : 2,
            "componentType" : 5126,
            "count" : 4,
            "type" : "VEC2"
        },
        {
            "bufferView" : 3,
            "componentType" : 5123,
            "count" : 6,
            "type" : "SCALAR"
        },
        {
            "bufferView" : 5,
            "componentType" : 5126,
            "count" : 4,
            "max" : [
                -533.25,
                2200,
                -34.47216796875
            ],
            "min" : [
                -1603,
                0,
                -34.47216796875
            ],
            "type" : "VEC3"
        },
        {
            "bufferView" : 6,
            "componentType" : 5126,
            "count" : 4,
            "type" : "VEC3"
        },
        {
            "bufferView" : 7,
            "componentType" : 5126,
            "count" : 4,
            "type" : "VEC2"
        },
        {
            "bufferView" : 8,
            "componentType" : 5123,
            "count" : 6,
            "type" : "SCALAR"
        },
        {
            "bufferView" : 10,
            "componentType" : 5126,
            "count" : 16,
            "max" : [
                -533.25,
                2200,
                34.47216796875
            ],
            "min" : [
                -1603,
                0,
                -34.47216796875
            ],
            "type" : "VEC3"
        },
        {
            "bufferView" : 11,
            "componentType" : 5126,
            "count" : 16,
            "type" : "VEC3"
        },
        {
            "bufferView" : 12,
            "componentType" : 5126,
            "count" : 16,
            "type" : "VEC2"
        },
        {
            "bufferView" : 13,
            "componentType" : 5123,
            "count" : 24,
            "type" : "SCALAR"
        },
        {
            "bufferView" : 15,
            "componentType" : 5126,
            "count" : 4,
            "max" : [
                534.875,
                2200,
                34.47216796875
            ],
            "min" : [
                -534.875,
                0,
                34.47216796875
            ],
            "type" : "VEC3"
        },
        {
            "bufferView" : 16,
            "componentType" : 5126,
            "count" : 4,
            "type" : "VEC3"
        },
        {
            "bufferView" : 17,
            "componentType" : 5126,
            "count" : 4,
            "type" : "VEC2"
        },
        {
            "bufferView" : 19,
            "componentType" : 5126,
            "count" : 4,
            "max" : [
                534.875,
                2200,
                -34.47216796875
            ],
            "min" : [
                -534.875,
                0,
                -34.47216796875
            ],
            "type" : "VEC3"
        },
        {
            "bufferView" : 20,
            "componentType" : 5126,
            "count" : 4,
            "type" : "VEC3"
        },
        {
            "bufferView" : 21,
            "componentType" : 5126,
            "count" : 4,
            "type" : "VEC2"
        },
        {
            "bufferView" : 22,
            "componentType" : 5126,
            "count" : 16,
            "max" : [
                534.875,
                2200,
                34.47216796875
            ],
            "min" : [
                -534.875,
                0,
                -34.47216796875
            ],
            "type" : "VEC3"
        },
        {
            "bufferView" : 23,
            "componentType" : 5126,
            "count" : 16,
            "type" : "VEC3"
        },
        {
            "bufferView" : 24,
            "componentType" : 5126,
            "count" : 16,
            "type" : "VEC2"
        },
        {
            "bufferView" : 25,
            "componentType" : 5126,
            "count" : 91,
            "max" : [
                3.033333333333333
            ],
            "min" : [
                0.03333333333333333
            ],
            "type" : "SCALAR"
        },
        {
            "bufferView" : 26,
            "componentType" : 5126,
            "count" : 91,
            "type" : "VEC3"
        },
        {
            "bufferView" : 27,
            "componentType" : 5126,
            "count" : 2,
            "max" : [
                3.033333333333333
            ],
            "min" : [
                0.03333333333333333
            ],
            "type" : "SCALAR"
        },
        {
            "bufferView" : 28,
            "componentType" : 5126,
            "count" : 2,
            "type" : "VEC4"
        },
        {
            "bufferView" : 29,
            "componentType" : 5126,
            "count" : 2,
            "type" : "VEC3"
        },
        {
            "bufferView" : 30,
            "componentType" : 5126,
            "count" : 91,
            "type" : "VEC3"
        },
        {
            "bufferView" : 31,
            "componentType" : 5126,
            "count" : 2,
            "type" : "VEC4"
        },
        {
            "bufferView" : 32,
            "componentType" : 5126,
            "count" : 2,
            "type" : "VEC3"
        }
    ],
    "bufferViews" : [
        {
            "buffer" : 0,
            "byteLength" : 48,
            "byteOffset" : 0
        },
        {
            "buffer" : 0,
            "byteLength" : 48,
            "byteOffset" : 48
        },
        {
            "buffer" : 0,
            "byteLength" : 32,
            "byteOffset" : 96
        },
        {
            "buffer" : 0,
            "byteLength" : 12,
            "byteOffset" : 128
        },
        {
            "buffer" : 0,
            "byteLength" : 51724,
            "byteOffset" : 140
        },
        {
            "buffer" : 0,
            "byteLength" : 48,
            "byteOffset" : 51864
        },
        {
            "buffer" : 0,
            "byteLength" : 48,
            "byteOffset" : 51912
        },
        {
            "buffer" : 0,
            "byteLength" : 32,
            "byteOffset" : 51960
        },
        {
            "buffer" : 0,
            "byteLength" : 12,
            "byteOffset" : 51992
        },
        {
            "buffer" : 0,
            "byteLength" : 20413,
            "byteOffset" : 52004
        },
        {
            "buffer" : 0,
            "byteLength" : 192,
            "byteOffset" : 72420
        },
        {
            "buffer" : 0,
            "byteLength" : 192,
            "byteOffset" : 72612
        },
        {
            "buffer" : 0,
            "byteLength" : 128,
            "byteOffset" : 72804
        },
        {
            "buffer" : 0,
            "byteLength" : 48,
            "byteOffset" : 72932
        },
        {
            "buffer" : 0,
            "byteLength" : 12839,
            "byteOffset" : 72980
        },
        {
            "buffer" : 0,
            "byteLength" : 48,
            "byteOffset" : 85820
        },
        {
            "buffer" : 0,
            "byteLength" : 48,
            "byteOffset" : 85868
        },
        {
            "buffer" : 0,
            "byteLength" : 32,
            "byteOffset" : 85916
        },
        {
            "buffer" : 0,
            "byteLength" : 52032,
            "byteOffset" : 85948
        },
        {
            "buffer" : 0,
            "byteLength" : 48,
            "byteOffset" : 137980
        },
        {
            "buffer" : 0,
            "byteLength" : 48,
            "byteOffset" : 138028
        },
        {
            "buffer" : 0,
            "byteLength" : 32,
            "byteOffset" : 138076
        },
        {
            "buffer" : 0,
            "byteLength" : 192,
            "byteOffset" : 138108
        },
        {
            "buffer" : 0,
            "byteLength" : 192,
            "byteOffset" : 138300
        },
        {
            "buffer" : 0,
            "byteLength" : 128,
            "byteOffset" : 138492
        },
        {
            "buffer" : 0,
            "byteLength" : 364,
            "byteOffset" : 138620
        },
        {
            "buffer" : 0,
            "byteLength" : 1092,
            "byteOffset" : 138984
        },
        {
            "buffer" : 0,
            "byteLength" : 8,
            "byteOffset" : 140076
        },
        {
            "buffer" : 0,
            "byteLength" : 32,
            "byteOffset" : 140084
        },
        {
            "buffer" : 0,
            "byteLength" : 24,
            "byteOffset" : 140116
        },
        {
            "buffer" : 0,
            "byteLength" : 1092,
            "byteOffset" : 140140
        },
        {
            "buffer" : 0,
            "byteLength" : 32,
            "byteOffset" : 141232
        },
        {
            "buffer" : 0,
            "byteLength" : 24,
            "byteOffset" : 141264
        }
    ],
    "samplers" : [
        {
            "magFilter" : 9729,
            "minFilter" : 9987
        }
    ],
    "buffers" : [
        {
            "byteLength" : 141288,
            "uri" : "data:application/octet-stream;base64,"
        }
    ]
}
