{
    "asset" : {
        "generator" : "Khronos glTF Blender I/O v1.8.19",
        "version" : "2.0"
    },
    "scene" : 0,
    "scenes" : [
        {
            "name" : "Scene",
            "nodes" : [
                0
            ]
        }
    ],
    "nodes" : [
        {
            "mesh" : 0,
            "name" : "DuanmenR",
            "translation" : [
                0.0004041728680022061,
                0,
                0
            ]
        }
    ],
    "animations" : [
        {
            "channels" : [
                {
                    "sampler" : 0,
                    "target" : {
                        "node" : 0,
                        "path" : "translation"
                    }
                },
                {
                    "sampler" : 1,
                    "target" : {
                        "node" : 0,
                        "path" : "rotation"
                    }
                },
                {
                    "sampler" : 2,
                    "target" : {
                        "node" : 0,
                        "path" : "scale"
                    }
                }
            ],
            "name" : "DuanmenR|Take 001|BaseLayer",
            "samplers" : [
                {
                    "input" : 12,
                    "interpolation" : "LINEAR",
                    "output" : 13
                },
                {
                    "input" : 12,
                    "interpolation" : "LINEAR",
                    "output" : 14
                },
                {
                    "input" : 15,
                    "interpolation" : "LINEAR",
                    "output" : 16
                }
            ]
        }
    ],
    "materials" : [
        {
            "alphaMode" : "BLEND",
            "doubleSided" : true,
            "name" : "Material #148",
            "pbrMetallicRoughness" : {
                "baseColorTexture" : {
                    "index" : 0
                },
                "roughnessFactor" : 0.858578622341156
            }
        },
        {
            "alphaMode" : "BLEND",
            "doubleSided" : true,
            "name" : "Material #102",
            "pbrMetallicRoughness" : {
                "baseColorTexture" : {
                    "index" : 1
                },
                "roughnessFactor" : 0.858578622341156
            }
        },
        {
            "alphaMode" : "BLEND",
            "doubleSided" : true,
            "name" : "Material #171",
            "pbrMetallicRoughness" : {
                "baseColorTexture" : {
                    "index" : 2
                },
                "roughnessFactor" : 0.858578622341156
            }
        }
    ],
    "meshes" : [
        {
            "name" : "\u7f51\u683c",
            "primitives" : [
                {
                    "attributes" : {
                        "POSITION" : 0,
                        "NORMAL" : 1,
                        "TEXCOORD_0" : 2
                    },
                    "indices" : 3,
                    "material" : 0
                },
                {
                    "attributes" : {
                        "POSITION" : 4,
                        "NORMAL" : 5,
                        "TEXCOORD_0" : 6
                    },
                    "indices" : 7,
                    "material" : 1
                },
                {
                    "attributes" : {
                        "POSITION" : 8,
                        "NORMAL" : 9,
                        "TEXCOORD_0" : 10
                    },
                    "indices" : 11,
                    "material" : 2
                }
            ]
        }
    ],
    "textures" : [
        {
            "sampler" : 0,
            "source" : 0
        },
        {
            "sampler" : 0,
            "source" : 1
        },
        {
            "sampler" : 0,
            "source" : 0
        }
    ],
    "images" : [
        {
            "bufferView" : 4,
            "mimeType" : "image/png",
            "name" : "SZduanmen"
        },
        {
            "bufferView" : 9,
            "mimeType" : "image/png",
            "name" : "SZyingjimen0002"
        }
    ],
    "accessors" : [
        {
            "bufferView" : 0,
            "componentType" : 5126,
            "count" : 4,
            "max" : [
                -0.00020208954811096191,
                2.285140037536621,
                -0.04736849665641785
            ],
            "min" : [
                -1.2004961967468262,
                -1.467820567313538e-07,
                -0.047368694096803665
            ],
            "type" : "VEC3"
        },
        {
            "bufferView" : 1,
            "componentType" : 5126,
            "count" : 4,
            "type" : "VEC3"
        },
        {
            "bufferView" : 2,
            "componentType" : 5126,
            "count" : 4,
            "type" : "VEC2"
        },
        {
            "bufferView" : 3,
            "componentType" : 5123,
            "count" : 6,
            "type" : "SCALAR"
        },
        {
            "bufferView" : 5,
            "componentType" : 5126,
            "count" : 16,
            "max" : [
                -0.00020208954811096191,
                2.285140037536621,
                0.035296496003866196
            ],
            "min" : [
                -1.2004961967468262,
                -1.467820567313538e-07,
                -0.047368694096803665
            ],
            "type" : "VEC3"
        },
        {
            "bufferView" : 6,
            "componentType" : 5126,
            "count" : 16,
            "type" : "VEC3"
        },
        {
            "bufferView" : 7,
            "componentType" : 5126,
            "count" : 16,
            "type" : "VEC2"
        },
        {
            "bufferView" : 8,
            "componentType" : 5123,
            "count" : 24,
            "type" : "SCALAR"
        },
        {
            "bufferView" : 10,
            "componentType" : 5126,
            "count" : 4,
            "max" : [
                -0.00020208954811096191,
                2.285140037536621,
                0.035296496003866196
            ],
            "min" : [
                -1.2004961967468262,
                -1.467820567313538e-07,
                0.03529630973935127
            ],
            "type" : "VEC3"
        },
        {
            "bufferView" : 11,
            "componentType" : 5126,
            "count" : 4,
            "type" : "VEC3"
        },
        {
            "bufferView" : 12,
            "componentType" : 5126,
            "count" : 4,
            "type" : "VEC2"
        },
        {
            "bufferView" : 13,
            "componentType" : 5123,
            "count" : 6,
            "type" : "SCALAR"
        },
        {
            "bufferView" : 14,
            "componentType" : 5126,
            "count" : 44,
            "max" : [
                1.3666666666666667
            ],
            "min" : [
                -0.06666666666666667
            ],
            "type" : "SCALAR"
        },
        {
            "bufferView" : 15,
            "componentType" : 5126,
            "count" : 44,
            "type" : "VEC3"
        },
        {
            "bufferView" : 16,
            "componentType" : 5126,
            "count" : 44,
            "type" : "VEC4"
        },
        {
            "bufferView" : 17,
            "componentType" : 5126,
            "count" : 2,
            "max" : [
                1.3666666666666667
            ],
            "min" : [
                -0.06666666666666667
            ],
            "type" : "SCALAR"
        },
        {
            "bufferView" : 18,
            "componentType" : 5126,
            "count" : 2,
            "type" : "VEC3"
        }
    ],
    "bufferViews" : [
        {
            "buffer" : 0,
            "byteLength" : 48,
            "byteOffset" : 0
        },
        {
            "buffer" : 0,
            "byteLength" : 48,
            "byteOffset" : 48
        },
        {
            "buffer" : 0,
            "byteLength" : 32,
            "byteOffset" : 96
        },
        {
            "buffer" : 0,
            "byteLength" : 12,
            "byteOffset" : 128
        },
        {
            "buffer" : 0,
            "byteLength" : 9966,
            "byteOffset" : 140
        },
        {
            "buffer" : 0,
            "byteLength" : 192,
            "byteOffset" : 10108
        },
        {
            "buffer" : 0,
            "byteLength" : 192,
            "byteOffset" : 10300
        },
        {
            "buffer" : 0,
            "byteLength" : 128,
            "byteOffset" : 10492
        },
        {
            "buffer" : 0,
            "byteLength" : 48,
            "byteOffset" : 10620
        },
        {
            "buffer" : 0,
            "byteLength" : 5074,
            "byteOffset" : 10668
        },
        {
            "buffer" : 0,
            "byteLength" : 48,
            "byteOffset" : 15744
        },
        {
            "buffer" : 0,
            "byteLength" : 48,
            "byteOffset" : 15792
        },
        {
            "buffer" : 0,
            "byteLength" : 32,
            "byteOffset" : 15840
        },
        {
            "buffer" : 0,
            "byteLength" : 12,
            "byteOffset" : 15872
        },
        {
            "buffer" : 0,
            "byteLength" : 176,
            "byteOffset" : 15884
        },
        {
            "buffer" : 0,
            "byteLength" : 528,
            "byteOffset" : 16060
        },
        {
            "buffer" : 0,
            "byteLength" : 704,
            "byteOffset" : 16588
        },
        {
            "buffer" : 0,
            "byteLength" : 8,
            "byteOffset" : 17292
        },
        {
            "buffer" : 0,
            "byteLength" : 24,
            "byteOffset" : 17300
        }
    ],
    "samplers" : [
        {
            "magFilter" : 9729,
            "minFilter" : 9987
        }
    ],
    "buffers" : [
        {
            "byteLength" : 17324,
            "uri" : "data:application/octet-stream;base64,"
        }
    ]
}
